# xmcd CD database file
#
# Track frame offsets:
#	150
#	18454
#	32571
#	54477
#	74129
#	93772
#	112397
#	129602
#	141009
#	154335
#	169020
#
# Disc length: 2488 seconds
#
# Revision: 0
# Processed by: cddbd v1.5.2PL0 Copyright (c) Steve Scherf et al.
# Submitted via: CDex 1.51
#
DISCID=9c09b60b
DTITLE=Juliet Midgley - Haven't We Met?
DYEAR=2000
DGENRE=Jazz
TTITLE0=You Fascinate Me So
TTITLE1=Havent't We Met?
TTITLE2=Lies Of Handsome Men
TTITLE3=Once Upon A Summertime
TTITLE4=Answering Machine
TTITLE5=Obsession
TTITLE6=Message To Michael
TTITLE7=Girls Of Summer
TTITLE8=Thieving Boy
TTITLE9=He Reminds Me Of You
TTITLE10=I Watch You Sleep
EXTD=YEAR: 2000
EXTT0=
EXTT1=
EXTT2=
EXTT3=
EXTT4=
EXTT5=
EXTT6=
EXTT7=
EXTT8=
EXTT9=
EXTT10=
PLAYORDER=
